<?xml version="1.0" encoding="UTF-8"?>
<svg id="Layer_2" xmlns="http://www.w3.org/2000/svg" xmlns:xlink="http://www.w3.org/1999/xlink" viewBox="0 0 845 333">
  <defs>
    <style>
      .cls-1 {
        fill: none;
      }

      .cls-2 {
        clip-path: url(#clippath);
      }

      .cls-3 {
        fill: #f7bca1;
      }

      .cls-4 {
        fill: #eb6608;
      }

      .cls-5 {
        fill: #fbd4c5;
      }

      .cls-6 {
        fill: #fcdcce;
      }

      .cls-7 {
        fill: #fcdacd;
      }

      .cls-8 {
        fill: #fff;
      }

      .cls-9 {
        fill: #fff1ea;
      }

      .cls-10 {
        fill: #fbe3d8;
      }

      .cls-11 {
        fill: #e75b0c;
      }

      .cls-12 {
        fill: #d95426;
      }

      .cls-13 {
        fill: #0d1014;
      }

      .cls-14 {
        fill: #19243d;
      }

      .cls-15 {
        fill: #1a2846;
      }

      .cls-16 {
        fill: #3c424d;
      }

      .cls-17 {
        clip-path: url(#clippath-1);
      }

      .cls-18 {
        clip-path: url(#clippath-4);
      }

      .cls-19 {
        clip-path: url(#clippath-3);
      }

      .cls-20 {
        clip-path: url(#clippath-2);
      }

      .cls-21 {
        clip-path: url(#clippath-7);
      }

      .cls-22 {
        clip-path: url(#clippath-8);
      }

      .cls-23 {
        clip-path: url(#clippath-6);
      }

      .cls-24 {
        clip-path: url(#clippath-5);
      }

      .cls-25 {
        clip-path: url(#clippath-9);
      }

      .cls-26 {
        clip-path: url(#clippath-10);
      }
    </style>
    <clipPath id="clippath">
      <rect class="cls-1" width="845" height="333" rx="10" ry="10" />
    </clipPath>
    <clipPath id="clippath-1">
      <path class="cls-1" d="M-287.56,221.59v-.03c-.05,6.07,1.23,29.35,1.23,29.35l8.95,11.14,42.71,8.33c-.13-2.29-.22-4.65-.22-7.16,0-32.67,24.08-60.3,56.72-61.67,.84-.03,1.67-.05,2.51-.05,31.85,0,59.16,24.92,59.16,56.78,0,5.13-.04,9.93-.12,14.45l273.76,3.73,5.45-.13c-.08-4.09-.12-8.4-.12-13.01,0-32.67,24.08-60.3,56.72-61.67,.84-.03,1.67-.05,2.51-.05,31.85,0,59.16,24.92,59.16,56.78,0,5.42,0,10.39-.03,14.96l4.38-.11s39.06-.92,51.29-27.39c0,0-2.6-4.14-2.81-9.18s1.12-40.86,1.12-40.86c0,0-8.57-21.47-18.23-30.16-9.66-8.69-161.83-26.38-181.3-35.57-19.47-9.19-68.63-46.84-118.84-51.71-50.21-4.88-183.89-.02-215.54,11.6-2.33,.85-4.74,1.93-7.18,3.16l1.45-.8-7.75,4.26c-29.19,17.41-61.79,54.38-66.62,64-5.6,11.14-4.24,50.79-4.24,50.79,0,0-4.07,4.11-4.12,10.17h0Z" />
    </clipPath>
    <clipPath id="clippath-2">
      <path class="cls-1" d="M-287.56,221.59v-.03c-.05,6.07,1.23,29.35,1.23,29.35l8.95,11.14,42.71,8.33c-.13-2.29-.22-4.65-.22-7.16,0-32.67,24.08-60.3,56.72-61.67,.84-.03,1.67-.05,2.51-.05,31.85,0,59.16,24.92,59.16,56.78,0,5.13-.04,9.93-.12,14.45l273.76,3.73,5.45-.13c-.08-4.09-.12-8.4-.12-13.01,0-32.67,24.08-60.3,56.72-61.67,.84-.03,1.67-.05,2.51-.05,31.85,0,59.16,24.92,59.16,56.78,0,5.42,0,10.39-.03,14.96l4.38-.11s39.06-.92,51.29-27.39c0,0-2.6-4.14-2.81-9.18s1.12-40.86,1.12-40.86c0,0-8.57-21.47-18.23-30.16-9.66-8.69-161.83-26.38-181.3-35.57-19.47-9.19-68.63-46.84-118.84-51.71-50.21-4.88-183.89-.02-215.55,11.59-2.33,.85-4.74,1.93-7.18,3.16l1.45-.8s-8.36,1.18-11.99,1.33c-3.63,.15-4.08,3.89-4.08,3.89l8.33-.95c-29.19,17.41-61.79,54.38-66.62,64-5.6,11.14-4.24,50.79-4.24,50.79,0,0-4.07,4.11-4.12,10.17h0Z" />
    </clipPath>
    <clipPath id="clippath-3">
      <path class="cls-8" d="M124.23,138.83h0l13.57-1.35c-2.09-.64-3.81-1.27-5.1-1.87-4.96-2.34-11.31-6.16-19.35-11.01-24.18-14.57-60.72-36.59-97.48-40.16-12.49-1.21-12.89-1.85-36.81-1.85-67.51,0-154.02,5.01-176.06,13.11-1.99,.73-4.12,1.67-6.52,2.87l-6.04,3.32c-14.27,8.53-29.36,21.91-41.37,34.17l375.15,2.76h0Z" />
    </clipPath>
    <clipPath id="clippath-4">
      <path class="cls-1" d="M-287.56,221.59v-.03c-.05,6.07,1.23,29.35,1.23,29.35l8.95,11.14,42.71,8.33c-.13-2.29-.22-4.65-.22-7.16,0-32.67,24.08-60.3,56.72-61.67,.84-.03,1.67-.05,2.51-.05,31.85,0,59.16,24.92,59.16,56.78,0,5.13-.04,9.93-.12,14.45l273.76,3.73,5.45-.13c-.08-4.09-.12-8.4-.12-13.01,0-32.67,24.08-60.3,56.72-61.67,.84-.03,1.67-.05,2.51-.05,31.85,0,59.16,24.92,59.16,56.78,0,5.42,0,10.39-.03,14.96l4.38-.11s39.06-.92,51.29-27.39c0,0-2.6-4.14-2.81-9.18s1.12-40.86,1.12-40.86c0,0-8.57-21.47-18.23-30.16-9.66-8.69-161.83-26.38-181.3-35.57-19.47-9.19-68.63-46.84-118.84-51.71-50.21-4.88-183.89-.02-215.54,11.6-2.33,.85-4.74,1.93-7.18,3.16l1.45-.8-7.75,4.26c-29.19,17.41-61.79,54.38-66.62,64-5.6,11.14-4.24,50.79-4.24,50.79,0,0-4.07,4.11-4.12,10.17h0Z" />
    </clipPath>
    <clipPath id="clippath-5">
      <path class="cls-1" d="M-287.56,221.59h0c-.04,4.85,.77,20.7,1.09,26.86,.09,1.61,.68,3.16,1.69,4.41h0c4.78,5.94,11.51,10.01,18.99,11.47l31.12,6.07c-.13-2.29-.22-4.65-.22-7.16,0-32.67,24.08-60.3,56.72-61.67,.84-.03,1.67-.05,2.51-.05,31.85,0,59.16,24.92,59.16,56.78,0,5.13-.04,9.93-.12,14.45l273.76,3.73,5.45-.13c-.08-4.09-.12-8.4-.12-13.01,0-32.67,24.08-60.3,56.72-61.67,.84-.03,1.67-.05,2.51-.05,31.85,0,59.16,24.92,59.16,56.78,0,5.42,0,10.39-.03,14.96l4.38-.11s22.02-.52,38.17-11.99c7.56-5.37,11.23-14.52,10.37-23.75-.03-.28-.06-.56-.06-.84-.21-5.04,1.12-40.86,1.12-40.86,0,0-8.57-21.47-18.23-30.16-9.66-8.69-161.83-26.38-181.3-35.57-19.47-9.19-68.63-46.84-118.84-51.71-50.21-4.88-183.89-.02-215.54,11.6-2.33,.85-4.74,1.93-7.18,3.16l1.45-.8-7.75,4.26c-29.19,17.41-61.79,54.38-66.62,64-5.6,11.14-4.24,50.79-4.24,50.79,0,0-4.07,4.11-4.12,10.17h0Z" />
    </clipPath>
    <clipPath id="clippath-6">
      <path class="cls-1" d="M1063.49,221.59c-.05-6.07-4.12-10.17-4.12-10.17,0,0,1.35-39.65-4.24-50.79-4.83-9.62-37.43-46.59-66.62-64l-7.75-4.26,1.45,.8c-2.44-1.23-4.85-2.3-7.18-3.16-31.64-11.62-165.33-16.48-215.54-11.6-50.21,4.88-99.37,42.53-118.84,51.71-19.47,9.19-171.65,26.88-181.3,35.57-9.66,8.69-18.23,30.16-18.23,30.16,0,0,1.33,35.82,1.12,40.86s-2.81,9.18-2.81,9.18c12.23,26.47,51.29,27.39,51.29,27.39l4.38,.11c-.02-4.57-.03-9.54-.03-14.96,0-31.86,27.32-56.78,59.16-56.78,.84,0,1.67,.02,2.51,.05,32.64,1.36,56.72,28.99,56.72,61.67,0,4.61-.05,8.92-.12,13.01l5.45,.13,273.76-3.73c-.08-4.52-.12-9.33-.12-14.45,0-31.86,27.32-56.78,59.16-56.78,.84,0,1.67,.02,2.51,.05,32.64,1.36,56.72,28.99,56.72,61.67,0,2.51-.09,4.87-.22,7.16l42.71-8.33,8.95-11.14s1.28-23.28,1.23-29.35v.03h0Z" />
    </clipPath>
    <clipPath id="clippath-7">
      <path class="cls-1" d="M1063.49,221.59c-.05-6.07-4.12-10.17-4.12-10.17,0,0,1.35-39.65-4.24-50.79-4.83-9.62-37.43-46.59-66.62-64l8.33,.95s-.45-3.73-4.08-3.89c-3.63-.15-11.99-1.33-11.99-1.33l1.45,.8c-2.44-1.23-4.85-2.3-7.18-3.16-31.65-11.61-165.34-16.47-215.55-11.59-50.21,4.88-99.37,42.53-118.84,51.71-19.47,9.19-171.65,26.88-181.3,35.57-9.66,8.69-18.23,30.16-18.23,30.16,0,0,1.33,35.82,1.12,40.86s-2.81,9.18-2.81,9.18c12.23,26.47,51.29,27.39,51.29,27.39l4.38,.11c-.02-4.57-.03-9.54-.03-14.96,0-31.86,27.32-56.78,59.16-56.78,.84,0,1.67,.02,2.51,.05,32.64,1.36,56.72,28.99,56.72,61.67,0,4.61-.05,8.92-.12,13.01l5.45,.13,273.76-3.73c-.08-4.52-.12-9.33-.12-14.45,0-31.86,27.32-56.78,59.16-56.78,.84,0,1.67,.02,2.51,.05,32.64,1.36,56.72,28.99,56.72,61.67,0,2.51-.09,4.87-.22,7.16l42.71-8.33,8.95-11.14s1.28-23.28,1.23-29.35v.03h0Z" />
    </clipPath>
    <clipPath id="clippath-8">
      <path class="cls-8" d="M651.72,138.82l375.15-2.76c-12.01-12.26-27.09-25.64-41.37-34.17l-6.04-3.32c-2.4-1.2-4.53-2.14-6.52-2.87-22.05-8.1-108.55-13.11-176.06-13.11-23.92,0-24.32,.64-36.81,1.85-36.77,3.57-73.31,25.59-97.48,40.16-8.04,4.85-14.39,8.67-19.35,11.01-1.29,.6-3,1.23-5.1,1.87l13.57,1.35h0Z" />
    </clipPath>
    <clipPath id="clippath-9">
      <path class="cls-1" d="M1063.49,221.59c-.05-6.07-4.12-10.17-4.12-10.17,0,0,1.35-39.65-4.24-50.79-4.83-9.62-37.43-46.59-66.62-64l-7.75-4.26,1.45,.8c-2.44-1.23-4.85-2.3-7.18-3.16-31.64-11.62-165.33-16.48-215.54-11.6-50.21,4.88-99.37,42.53-118.84,51.71-19.47,9.19-171.65,26.88-181.3,35.57-9.66,8.69-18.23,30.16-18.23,30.16,0,0,1.33,35.82,1.12,40.86s-2.81,9.18-2.81,9.18c12.23,26.47,51.29,27.39,51.29,27.39l4.38,.11c-.02-4.57-.03-9.54-.03-14.96,0-31.86,27.32-56.78,59.16-56.78,.84,0,1.67,.02,2.51,.05,32.64,1.36,56.72,28.99,56.72,61.67,0,4.61-.05,8.92-.12,13.01l5.45,.13,273.76-3.73c-.08-4.52-.12-9.33-.12-14.45,0-31.86,27.32-56.78,59.16-56.78,.84,0,1.67,.02,2.51,.05,32.64,1.36,56.72,28.99,56.72,61.67,0,2.51-.09,4.87-.22,7.16l42.71-8.33,8.95-11.14s1.28-23.28,1.23-29.35v.03h0Z" />
    </clipPath>
    <clipPath id="clippath-10">
      <path class="cls-1" d="M1063.49,221.59c-.05-6.07-4.12-10.17-4.12-10.17,0,0,1.35-39.65-4.24-50.79-4.83-9.62-37.43-46.59-66.62-64l-7.75-4.26,1.45,.8c-2.44-1.23-4.85-2.3-7.18-3.16-31.64-11.62-165.33-16.48-215.54-11.6-50.21,4.88-99.37,42.53-118.84,51.71-19.47,9.19-171.65,26.88-181.3,35.57-9.66,8.69-18.23,30.16-18.23,30.16,0,0,1.33,35.82,1.12,40.86,0,.28-.03,.56-.06,.84-.86,9.23,2.8,18.38,10.37,23.75,16.15,11.47,38.17,11.99,38.17,11.99l4.38,.11c-.02-4.57-.03-9.54-.03-14.96,0-31.86,27.32-56.78,59.16-56.78,.84,0,1.67,.02,2.51,.05,32.64,1.36,56.72,28.99,56.72,61.67,0,4.61-.05,8.92-.12,13.01l5.45,.13,273.76-3.73c-.08-4.52-.12-9.33-.12-14.45,0-31.86,27.32-56.78,59.16-56.78,.84,0,1.67,.02,2.51,.05,32.64,1.36,56.72,28.99,56.72,61.67,0,2.51-.09,4.87-.22,7.16l31.12-6.07c7.49-1.46,14.21-5.53,18.99-11.47h0c1.01-1.26,1.6-2.8,1.69-4.41,.33-6.16,1.13-22.02,1.09-26.86h0Z" />
    </clipPath>
  </defs>
  <rect class="cls-9" width="845" height="333" rx="10" ry="10" />
  <g class="cls-2">
    <g>
      <g>
        <g id="Isolation_Mode-2">
          <g>
            <g>
              <g>
                <circle class="cls-16" cx="221.35" cy="260.89" r="35.92" />
                <circle class="cls-6" cx="221.13" cy="260.88" r="51.9" />
                <path class="cls-10" d="M221.36,229.89h0c-17.11,0-30.99,13.88-30.99,30.99,0,17.11,13.88,30.99,30.99,30.99,17.11,0,30.99-13.88,30.99-30.99s-13.87-30.99-30.99-30.99h0Zm-17.01,31c0-9.39,7.62-17.01,17.01-17.01,9.39,0,17.01,7.62,17.01,17.01s-7.61,17.01-17.01,17.01-17.01-7.62-17.01-17.01Z" />
                <g>
                  <path class="cls-8" d="M221.36,256.88c2.21,0,4,1.79,4,4s-1.79,4-4,4-4-1.79-4-4,1.79-4,4-4Z" />
                  <circle class="cls-8" cx="226.11" cy="254.48" r="1.37" />
                  <path class="cls-8" d="M216.42,253.1c.76,0,1.37,.61,1.37,1.37s-.61,1.37-1.37,1.37-1.37-.61-1.37-1.37,.61-1.37,1.37-1.37Z" />
                  <path class="cls-8" d="M221.42,267.17c.76,0,1.37,.61,1.37,1.37s-.61,1.37-1.37,1.37-1.37-.61-1.37-1.37,.61-1.37,1.37-1.37Z" />
                  <path class="cls-8" d="M228.59,261.91c.76,0,1.37,.61,1.37,1.37s-.61,1.37-1.37,1.37-1.37-.61-1.37-1.37,.61-1.37,1.37-1.37Z" />
                  <path class="cls-8" d="M214.1,261.95c.76,0,1.37,.61,1.37,1.37s-.61,1.37-1.37,1.37-1.37-.61-1.37-1.37,.61-1.37,1.37-1.37Z" />
                </g>
                <path class="cls-10" d="M183.47,260.88c0,20.92,16.96,37.88,37.88,37.88,20.92,0,37.88-16.96,37.88-37.88,0-20.92-16.96-37.88-37.88-37.88s-37.88,16.96-37.88,37.88Zm2.59,0c0-19.49,15.8-35.29,35.29-35.29,19.49,0,35.29,15.8,35.29,35.29,0,19.49-15.8,35.29-35.29,35.29s-35.29-15.8-35.29-35.29Z" />
              </g>
              <path class="cls-10" d="M-287.56,221.59h0c-.04,4.85,.77,20.7,1.09,26.86,.09,1.61,.68,3.16,1.69,4.41h0c4.78,5.94,11.51,10.01,18.99,11.47l31.12,6.07c-.13-2.29-.22-4.65-.22-7.16,0-32.67,24.08-60.3,56.72-61.67,.84-.03,1.67-.05,2.51-.05,31.85,0,59.16,24.92,59.16,56.78,0,5.13-.04,9.93-.12,14.45l273.76,3.73,5.45-.13c-.08-4.09-.12-8.4-.12-13.01,0-32.67,24.08-60.3,56.72-61.67,.84-.03,1.67-.05,2.51-.05,31.85,0,59.16,24.92,59.16,56.78,0,5.42,0,10.39-.03,14.96l4.38-.11s22.02-.52,38.17-11.99c7.56-5.37,11.23-14.52,10.37-23.75-.03-.28-.06-.56-.06-.84-.21-5.04,1.12-40.86,1.12-40.86,0,0-8.57-21.47-18.23-30.16-9.66-8.69-161.83-26.38-181.3-35.57-19.47-9.19-68.63-46.84-118.84-51.71-50.21-4.88-183.89-.02-215.54,11.6-2.33,.85-4.74,1.93-7.18,3.16l1.45-.8-7.75,4.26c-29.19,17.41-61.79,54.38-66.62,64-5.6,11.14-4.24,50.79-4.24,50.79,0,0-4.07,4.11-4.12,10.17h0Z" />
              <g class="cls-17">
                <path class="cls-6" d="M335.17,192.04h0l-14.13-22.71s-126.57-25.43-178.35-25.43c-18.79,0-344.61-.31-380.14-.31-35.53,0-25.84-16.96-25.84-16.96,0,0-16.55,4.44-21.39,16.96-4.85,12.52-.4,40.38-.4,40.38,0,0,455.53,6.06,520.94,5.65,65.41-.4,99.32,2.42,99.32,2.42h0Z" />
              </g>
              <g class="cls-20">
                <g>
                  <path class="cls-6" d="M337.08,203.85h0l3.33,26.35-3.08,1.51c-6.97,3.41-14.53,5.4-22.27,5.87l-13.11,.81c-2.46,.15-4.41-2.05-3.94-4.47l2.77-14.68c1.1-5.82,6.07-10.1,11.98-10.33l9.82-.38c2.19-.09,4.34-.55,6.36-1.37l8.14-3.3h0Z" />
                  <path class="cls-8" d="M306.3,219.39h0c-.65,0-1.19-.52-1.21-1.17-.03-.67,.5-1.23,1.17-1.25,.08,0,7-.21,14.81-1.3,7.69-1.07,16.42-5.11,16.51-5.14,.61-.29,1.33-.02,1.61,.59,.29,.6,.02,1.33-.59,1.61-.36,.17-9.14,4.22-17.2,5.35-7.95,1.1-15,1.32-15.07,1.32h-.04Z" />
                  <path class="cls-8" d="M306.19,232h0c-.65,0-1.19-.52-1.21-1.17-.03-.67,.5-1.23,1.17-1.25,.08,0,7-.21,14.81-1.3,7.71-1.07,20.43-6.81,20.56-6.87,.61-.28,1.32,0,1.6,.6,.28,.6,0,1.32-.6,1.6-.54,.25-13.18,5.94-21.23,7.06-7.95,1.1-15,1.32-15.07,1.32h-.04Z" />
                </g>
              </g>
              <g>
                <path class="cls-8" d="M124.23,138.83h0l13.57-1.35c-2.09-.64-3.81-1.27-5.1-1.87-4.96-2.34-11.31-6.16-19.35-11.01-24.18-14.57-60.72-36.59-97.48-40.16-12.49-1.21-12.89-1.85-36.81-1.85-67.51,0-154.02,5.01-176.06,13.11-1.99,.73-4.12,1.67-6.52,2.87l-6.04,3.32c-14.27,8.53-29.36,21.91-41.37,34.17l375.15,2.76h0Z" />
                <g class="cls-19">
                  <path class="cls-6" d="M-239.17,131.31h0c209.02-51.29,358.73,2.65,358.73,2.65-2.67-1.56-5.56-3.3-8.71-5.2-23.82-14.35-59.79-36.02-95.47-39.49-12.34-1.2-12.57-1.83-36.34-1.83-67.38,0-153.53,5.14-174.39,12.81-1.79,.65-3.74,1.51-5.94,2.61l-5.87,3.23c-9.57,5.73-20.7,14.51-32.02,25.2h0Z" />
                </g>
              </g>
              <g class="cls-18">
                <path class="cls-6" d="M176.5,238.06h0l5.65,13.32-244.45,.2c-4.55,0-9.04-1.02-13.12-3.01-11.9-5.82-20.01-10.64-25.45-14.35-3.7-2.52-1.78-8.32,2.71-8.14l274.66,11.98h0Z" />
              </g>
              <g>
                <path class="cls-3" d="M166.8,260.07h0l-184.82-2.03v-17.96c0-13.27-1.99-61.53-2.84-81.67-.31-7.39-2.64-14.55-6.75-20.7l-.1-.12v-.15c-2.4-25.27-6.7-54.22-6.74-54.51l1.2-.17c.05,.29,4.33,29.15,6.73,54.42,4.18,6.32,6.56,13.64,6.87,21.19,.85,20.14,2.84,68.42,2.84,81.72v16.76s183.62,2.02,183.62,2.02v1.21h0Z" />
                <path class="cls-3" d="M148.83,259.07h0l-1.21-.03c.02-.94,1.98-94.11-1.19-104.79-3.14-10.6-9-16.3-9.06-16.35l.84-.87c.25,.24,6.15,5.96,9.39,16.89,3.22,10.86,1.32,101.3,1.24,105.15h0Z" />
              </g>
            </g>
            <g class="cls-24">
              <path class="cls-8" d="M349.6,176.66h0l17.79,15.81s-8.85,4.5-20.55,1.7c-11.7-2.81-28.84-7.52-48.24-10.37-19.39-2.84-21.14-21-19.98-20.89,1.16,.11,27.44,5.04,43.76,6.81,16.31,1.78,27.22,6.93,27.22,6.93h0Z" />
            </g>
            <g>
              <path class="cls-8" d="M123.37,146.43h0c.44,1.35-.4,2.88-1.82,3.03h-.05c-1.31,.12-11.15,.49-14.48,.61-.7,.03-1.37-.26-1.83-.79l-6.18-6.99,22.6-1.32,1.78,5.45h0Z" />
              <path class="cls-8" d="M88.71,129.84c-3.65,5.22-2.22,15.92-2.22,15.92,0,0,21.83,1.97,28.3,.94,6.48-1.03,8.11-3.67,8.03-7.23-.08-3.55-.93-7.84-8.02-12.47-7.09-4.63-16.96-5.05-16.96-5.05,0,0-5.49,2.65-9.14,7.88Z" />
            </g>
          </g>
        </g>
        <g id="Isolation_Mode-2-2">
          <g>
            <g>
              <g>
                <circle class="cls-16" cx="554.59" cy="260.89" r="35.92" />
                <path class="cls-6" d="M554.81,208.97c28.67,0,51.9,23.24,51.9,51.9s-23.24,51.9-51.9,51.9c-28.67,0-51.9-23.24-51.9-51.9,0-28.67,23.24-51.9,51.9-51.9Z" />
                <path class="cls-10" d="M554.59,229.89c-17.12,0-30.99,13.88-30.99,30.99,0,17.11,13.88,30.99,30.99,30.99,17.11,0,30.99-13.88,30.99-30.99,0-17.11-13.88-30.99-30.99-30.99h0Zm0,48.01c-9.4,0-17.01-7.62-17.01-17.01,0-9.39,7.62-17.01,17.01-17.01s17.01,7.62,17.01,17.01c0,9.39-7.62,17.01-17.01,17.01Z" />
                <g>
                  <path class="cls-8" d="M558.59,260.88c0,2.21-1.79,4-4,4s-4-1.79-4-4,1.79-4,4-4,4,1.79,4,4Z" />
                  <circle class="cls-8" cx="549.83" cy="254.48" r="1.37" />
                  <path class="cls-8" d="M560.89,254.48c0,.76-.61,1.37-1.37,1.37s-1.37-.61-1.37-1.37,.61-1.37,1.37-1.37,1.37,.61,1.37,1.37Z" />
                  <path class="cls-8" d="M555.89,268.55c0,.76-.61,1.37-1.37,1.37s-1.37-.61-1.37-1.37,.61-1.37,1.37-1.37,1.37,.61,1.37,1.37Z" />
                  <path class="cls-8" d="M548.72,263.28c0,.76-.61,1.37-1.37,1.37s-1.37-.61-1.37-1.37,.61-1.37,1.37-1.37,1.37,.61,1.37,1.37Z" />
                  <path class="cls-8" d="M563.21,263.33c0,.76-.61,1.37-1.37,1.37s-1.37-.61-1.37-1.37,.61-1.37,1.37-1.37,1.37,.61,1.37,1.37Z" />
                </g>
                <path class="cls-10" d="M554.59,223c-20.92,0-37.88,16.96-37.88,37.88,0,20.92,16.96,37.88,37.88,37.88,20.92,0,37.88-16.96,37.88-37.88s-16.96-37.88-37.88-37.88Zm0,73.17c-19.49,0-35.29-15.8-35.29-35.29,0-19.49,15.8-35.29,35.29-35.29,19.49,0,35.29,15.8,35.29,35.29,0,19.49-15.8,35.29-35.29,35.29Z" />
              </g>
              <path class="cls-10" d="M1063.49,221.59c-.05-6.07-4.12-10.17-4.12-10.17,0,0,1.35-39.65-4.24-50.79-4.83-9.62-37.43-46.59-66.62-64l-7.75-4.26,1.45,.8c-2.44-1.23-4.85-2.3-7.18-3.16-31.64-11.62-165.33-16.48-215.54-11.6-50.21,4.88-99.37,42.53-118.84,51.71-19.47,9.19-171.65,26.88-181.3,35.57-9.66,8.69-18.23,30.16-18.23,30.16,0,0,1.33,35.82,1.12,40.86,0,.28-.03,.56-.06,.84-.86,9.23,2.8,18.38,10.37,23.75,16.15,11.47,38.17,11.99,38.17,11.99l4.38,.11c-.02-4.57-.03-9.54-.03-14.96,0-31.86,27.32-56.78,59.16-56.78,.84,0,1.67,.02,2.51,.05,32.64,1.36,56.72,28.99,56.72,61.67,0,4.61-.05,8.92-.12,13.01l5.45,.13,273.76-3.73c-.08-4.52-.12-9.33-.12-14.45,0-31.86,27.32-56.78,59.16-56.78,.84,0,1.67,.02,2.51,.05,32.64,1.36,56.72,28.99,56.72,61.67,0,2.51-.09,4.87-.22,7.16l31.12-6.07c7.49-1.46,14.21-5.53,18.99-11.47h0c1.01-1.26,1.6-2.8,1.69-4.41,.33-6.16,1.13-22.02,1.09-26.86h0Z" />
              <g class="cls-23">
                <path class="cls-6" d="M440.77,192.04s33.91-2.82,99.32-2.42c65.41,.4,520.94-5.65,520.94-5.65,0,0,4.44-27.86-.4-40.38-4.85-12.52-21.39-16.96-21.39-16.96,0,0,9.69,16.96-25.84,16.96-35.53,0-361.35,.31-380.14,.31-51.78,0-178.35,25.43-178.35,25.43l-14.13,22.71h0Z" />
              </g>
              <g class="cls-21">
                <g>
                  <path class="cls-6" d="M438.86,203.85l8.14,3.3c2.03,.83,4.18,1.29,6.36,1.37l9.82,.38c5.91,.23,10.87,4.51,11.98,10.33l2.77,14.68c.46,2.42-1.49,4.63-3.94,4.47l-13.11-.81c-7.74-.47-15.3-2.47-22.27-5.87l-3.08-1.51,3.33-26.35h0Z" />
                  <path class="cls-8" d="M469.65,219.4h-.04c-.07,0-7.12-.22-15.07-1.32-8.06-1.12-16.83-5.17-17.2-5.35-.6-.28-.87-1.01-.59-1.61,.28-.6,1-.87,1.61-.59,.09,.04,8.82,4.08,16.51,5.14,7.81,1.08,14.73,1.3,14.81,1.3,.67,.02,1.2,.58,1.17,1.25-.02,.65-.56,1.17-1.21,1.17h0Z" />
                  <path class="cls-8" d="M469.75,232.01h-.04c-.07,0-7.12-.22-15.07-1.32-8.05-1.12-20.69-6.81-21.23-7.06-.6-.28-.88-1-.6-1.6,.28-.61,.99-.88,1.6-.6,.12,.06,12.85,5.8,20.56,6.87,7.81,1.08,14.73,1.3,14.81,1.3,.67,.02,1.2,.58,1.17,1.25-.02,.65-.56,1.17-1.21,1.17h0Z" />
                </g>
              </g>
              <g>
                <path class="cls-8" d="M651.72,138.82l375.15-2.76c-12.01-12.26-27.09-25.64-41.37-34.17l-6.04-3.32c-2.4-1.2-4.53-2.14-6.52-2.87-22.05-8.1-108.55-13.11-176.06-13.11-23.92,0-24.32,.64-36.81,1.85-36.77,3.57-73.31,25.59-97.48,40.16-8.04,4.85-14.39,8.67-19.35,11.01-1.29,.6-3,1.23-5.1,1.87l13.57,1.35h0Z" />
                <g class="cls-22">
                  <g>
                    <path class="cls-6" d="M1015.11,131.3c-11.32-10.69-22.45-19.47-32.02-25.2l-5.87-3.23c-2.2-1.1-4.15-1.96-5.94-2.61-20.87-7.67-107.02-12.81-174.39-12.81-23.76,0-23.99,.63-36.34,1.83-35.67,3.46-71.65,25.14-95.47,39.49-3.15,1.9-6.04,3.64-8.71,5.2,0,0,149.71-53.94,358.73-2.65h0Z" />
                    <path class="cls-10" d="M804.26,79s-11.71,37.14-14.13,66.62l24.63,1.21s-.81-48.85,2.82-66.22l-13.32-1.61h0Z" />
                  </g>
                </g>
              </g>
              <g class="cls-25">
                <path class="cls-6" d="M599.45,238.06l274.66-11.98c4.48-.18,6.41,5.61,2.71,8.14-5.44,3.7-13.55,8.53-25.45,14.35-4.08,2-8.57,3.01-13.12,3.01l-244.45-.2,5.65-13.32h0Z" />
              </g>
              <g>
                <path class="cls-3" d="M609.14,260.07v-1.21l183.62-2.02v-16.76c0-13.29,1.99-61.58,2.84-81.72,.32-7.55,2.7-14.88,6.87-21.19,2.4-25.27,6.68-54.13,6.73-54.42l1.2,.17c-.04,.29-4.34,29.23-6.74,54.51v.15s-.1,.12-.1,.12c-4.11,6.15-6.44,13.31-6.75,20.7-.85,20.14-2.84,68.39-2.84,81.67v17.96l-184.82,2.03h0Z" />
                <path class="cls-3" d="M627.11,259.07c-.09-3.85-1.99-94.29,1.24-105.15,3.23-10.93,9.14-16.65,9.39-16.89l.84,.87c-.06,.06-5.92,5.76-9.06,16.35-3.17,10.68-1.21,103.85-1.19,104.79l-1.21,.03h0Z" />
                <path class="cls-3" d="M793.37,258.05v-1.21s91.24-.16,91.24-.16c.93-35.7,32.37-64.44,69.82-62.96,2.26,.1,4.52,.32,6.91,.67,.12-37.86-.18-44.67-.38-45.34-.73-1.9-4.66-6.49-7.01-9.22-.76-.89-1.4-1.63-1.78-2.1-.78-.97-1.07-1.52-2.17-3.53-1.3-2.39-3.71-6.82-9.39-16.53-10.34-17.7-21.9-29.64-22.02-29.76l.86-.84c.12,.12,11.78,12.17,22.19,29.99,5.67,9.71,8.1,14.17,9.41,16.56,1.08,2,1.34,2.48,2.05,3.36,.37,.47,1,1.2,1.75,2.07,2.55,2.98,6.41,7.49,7.23,9.59,.16,.44,.61,1.59,.45,46.47v.71l-.7-.12c-2.6-.41-5.04-.66-7.47-.77-36.93-1.52-67.99,27.06-68.58,62.37v.6s-92.44,.16-92.44,.16h0Z" />
              </g>
            </g>
            <g class="cls-26">
              <path class="cls-8" d="M426.34,176.65s10.91-5.15,27.22-6.93c16.32-1.78,42.59-6.71,43.76-6.81,1.16-.11-.6,18.05-19.98,20.89-19.4,2.84-36.54,7.55-48.24,10.37-11.7,2.8-20.55-1.7-20.55-1.7l17.79-15.81h0Z" />
            </g>
            <g>
              <path class="cls-8" d="M652.57,146.43l1.78-5.45,22.6,1.32-6.18,6.99c-.46,.53-1.13,.82-1.83,.79-3.33-.12-13.17-.49-14.48-.61h-.05c-1.42-.15-2.27-1.68-1.82-3.03h0Z" />
              <path class="cls-8" d="M678.09,121.96s-9.87,.42-16.96,5.05c-7.09,4.63-7.95,8.92-8.02,12.47-.08,3.56,1.55,6.2,8.03,7.23,6.47,1.03,28.3-.94,28.3-.94,0,0,1.43-10.7-2.22-15.92-3.65-5.23-9.14-7.88-9.14-7.88Z" />
            </g>
          </g>
        </g>
      </g>
      <g>
        <path class="cls-15" d="M192.16,200.74l-37.69,96.45-27.12-38.19-4.47,11.33-9.42-5.29-2.17-.43c-1.95-.39-3.91,.67-4.65,2.52h0c-.58,1.44-.3,3.09,.73,4.26l31.78,36.32c3.4,3.89,8.31,6.12,13.48,6.12h5.54l12.48-3.74c3.79-1.14,6.85-3.95,8.29-7.63l38.72-98.38-25.5-3.33Z" />
        <path class="cls-12" d="M144.49,144.2l-3.69-36c-.46-4.46,1.55-8.82,5.24-11.38l51.66-35.77,9.52-2.04c3.6-.77,7.31,.78,9.29,3.89l12.23,19.22-84.25,62.08Z" />
        <path class="cls-15" d="M184.4,192.81h-21.22c-3.47,0-6.35,2.68-6.59,6.15l-6.45,92.13h6.71l5.97-15.28,11.6-70.64,17.74-4.43-7.76-7.92Z" />
        <path class="cls-4" d="M82.97,277.78l53.61-142.6c1.19-3.17,3.22-5.95,5.86-8.06l67.97-54.19c6.38-5.09,14.62-7.23,22.68-5.89l1.51,.25c7.83,1.3,14.07,7.25,15.72,15.01,2.49,11.7,5.38,30.35,4.72,51.8-.1,3.27-1.31,6.41-3.4,8.92l-7.91,9.49-28.27,65.96s-8.97,3.26-17.81,.7c-2.55-.74-4.78-2.29-6.51-4.3l-31.81-36.86-44.63,113.08-31.71-13.3Z" />
        <path class="cls-15" d="M80.92,291.09s-26.22,67.07-46.18,97h30.16s31.92-52.1,38.57-79.82l-22.55-17.18Z" />
        <path class="cls-15" d="M218.43,73.73c-1.8,4.62-2.33,10.87,1.37,18.57,3.13,6.5,8.4,11.82,15.11,14.49,6.18,2.46,14.19,3.01,20.2-5.82,0,0,5.71-26.69-20.94-34.79-6.39-1.94-13.31,1.32-15.74,7.55Z" />
        <path class="cls-12" d="M70.6,304.38l10.69,12.63c.37,.44,.88,.73,1.45,.82l17.8,2.97c.8,.13,1.61-.14,2.16-.73l7.08-7.57c.22-.23,.39-.51,.5-.81l11.39-30.66c.59-1.58-.58-3.26-2.26-3.26h-3.41c-.11,0-.22,0-.33-.02l-15.58-2.13c-.32-.04-.64-.15-.92-.32l-9.84-5.91c-.53-.32-.91-.82-1.08-1.41h0c-.63-2.22-3.72-2.37-4.57-.22l-13.49,34.16c-.33,.83-.17,1.77,.4,2.45Z" />
        <path class="cls-7" d="M231.84,78.7c-.71,4.77,.55,12.22,13.66,15.78,2.58,.7,5.34,.27,7.57-1.2l35.54-23.35s10.36-6.65,23.47,0l50.01,19.87c2.38,.94,5.04,.87,7.35-.21,4.11-1.92,9.66-6.29,9.73-15.93,.03-3.84-2.33-7.31-5.91-8.7l-52.51-20.51s-19.65-13.3-45.3,0l-39.81,28.18c-2.03,1.44-3.44,3.63-3.81,6.09Z" />
        <polygon class="cls-12" points="222.82 144.2 191.12 214.87 159.31 178.01 156.69 173.02 222.82 144.2" />
        <ellipse class="cls-15" cx="367.87" cy="76.02" rx="13.3" ry="8.87" transform="translate(155.11 385.6) rotate(-67.18)" />
      </g>
      <g>
        <path class="cls-13" d="M661.38,148.18l6.87,8.5,24.17,14.78s16.19,0,18.07-11.64l-3.81-19.97c-.62-3.24-2.26-6.19-4.69-8.41l-9.23-8.47-31.37,25.21h0Z" />
        <path class="cls-14" d="M692.42,171.46s66.51,121.94,76.49,220.61h26.61s-36.58-162.96-89.8-239.45l-13.3,18.85Z" />
        <path class="cls-4" d="M542.2,39.76l43.77-12.62s30.31-9.78,48.43,12.39l68.01,88.69s-8.99,28.82-39.98,28.82c0,0-34.57-26.24-55.5-53.58l-26.24,10.83-38.5-74.54Z" />
        <path class="cls-13" d="M531.45,49.35s1.03-3.23,3.91-6.09c2.47-2.46,5.89-3.71,9.37-3.71h25.01c5.02,0,9.77,2.35,12.75,6.4,8.34,11.32,21.88,36.14,5.33,62.06-2.76,4.31-7.28,7.19-12.36,7.85l-19.91,2.55-24.1-69.05Z" />
        <path class="cls-14" d="M514.8,56.68l21.31-9.38h32.67c3.09,0,6.04,1.35,7.99,3.76,5.72,7.07,15.18,24.16,3.96,51.66-1.44,3.54-4.25,6.34-7.73,7.89l-27.73,12.37-30.47-66.3Z" />
        <path class="cls-13" d="M554.15,66.15c3.12,5.73,6.52,13.96,7.58,23.77,0,0-1.56,36.26-26.89,35.08,0,0-17.69-.65-29.74-23.3-2.63-4.94-3.9-10.5-3.9-16.1v-11.39c0-9.81,8.06-17.72,17.87-17.52l20.09,.41c6.25,.12,12.01,3.56,14.99,9.06h.01Z" />
        <g>
          <ellipse class="cls-5" cx="526.69" cy="87.21" rx="8.31" ry="9.98" />
          <path class="cls-11" d="M526.69,97.74c-4.89,0-8.87-4.72-8.87-10.53s3.98-10.53,8.87-10.53,8.87,4.72,8.87,10.53-3.98,10.53-8.87,10.53Zm0-19.95c-4.28,0-7.76,4.22-7.76,9.42s3.48,9.42,7.76,9.42,7.76-4.22,7.76-9.42-3.48-9.42-7.76-9.42Z" />
        </g>
        <g>
          <ellipse class="cls-5" cx="547.75" cy="89.43" rx="8.31" ry="9.98" />
          <path class="cls-11" d="M547.75,99.96c-4.89,0-8.87-4.72-8.87-10.53s3.98-10.53,8.87-10.53,8.87,4.72,8.87,10.53-3.98,10.53-8.87,10.53Zm0-19.95c-4.28,0-7.76,4.22-7.76,9.42s3.48,9.42,7.76,9.42,7.76-4.22,7.76-9.42-3.48-9.42-7.76-9.42Z" />
        </g>
        <g>
          <ellipse class="cls-5" cx="521.14" cy="109.38" rx="8.31" ry="9.98" />
          <path class="cls-11" d="M521.14,119.91c-4.89,0-8.87-4.72-8.87-10.53s3.98-10.53,8.87-10.53,8.87,4.72,8.87,10.53-3.98,10.53-8.87,10.53Zm0-19.95c-4.28,0-7.76,4.22-7.76,9.42s3.48,9.42,7.76,9.42,7.76-4.22,7.76-9.42-3.48-9.42-7.76-9.42Z" />
        </g>
        <g>
          <ellipse class="cls-5" cx="541.1" cy="110.49" rx="8.31" ry="9.98" />
          <path class="cls-11" d="M541.1,121.02c-4.89,0-8.87-4.72-8.87-10.53s3.98-10.53,8.87-10.53,8.87,4.72,8.87,10.53-3.98,10.53-8.87,10.53Zm0-19.95c-4.28,0-7.76,4.22-7.76,9.42s3.48,9.42,7.76,9.42,7.76-4.22,7.76-9.42-3.48-9.42-7.76-9.42Z" />
        </g>
        <g>
          <ellipse class="cls-5" cx="535.14" cy="71.55" rx="6.13" ry="7.35" />
          <path class="cls-11" d="M535.14,79.45c-3.68,0-6.68-3.55-6.68-7.9s2.99-7.9,6.68-7.9,6.68,3.55,6.68,7.9-2.99,7.9-6.68,7.9Zm0-14.7c-3.07,0-5.58,3.05-5.58,6.8s2.49,6.8,5.58,6.8,5.58-3.05,5.58-6.8-2.49-6.8-5.58-6.8Z" />
        </g>
      </g>
    </g>
  </g>
  <g>
    <ellipse class="cls-5" cx="506.73" cy="86.1" rx="8.31" ry="9.98" />
    <path class="cls-11" d="M506.73,96.63c-4.89,0-8.87-4.72-8.87-10.53s3.98-10.53,8.87-10.53,8.87,4.72,8.87,10.53-3.98,10.53-8.87,10.53Zm0-19.95c-4.28,0-7.76,4.22-7.76,9.42s3.48,9.42,7.76,9.42,7.76-4.22,7.76-9.42-3.48-9.42-7.76-9.42Z" />
  </g>
  <g>
    <ellipse class="cls-5" cx="516.01" cy="70.73" rx="6.13" ry="7.35" />
    <path class="cls-11" d="M516.01,78.63c-3.68,0-6.68-3.55-6.68-7.9s2.99-7.9,6.68-7.9,6.68,3.55,6.68,7.9-2.99,7.9-6.68,7.9Zm0-14.7c-3.07,0-5.58,3.05-5.58,6.8s2.49,6.8,5.58,6.8,5.58-3.05,5.58-6.8-2.49-6.8-5.58-6.8Z" />
  </g>
</svg>